<svg width="36" height="36" viewBox="0 0 36 36" fill="none" xmlns="http://www.w3.org/2000/svg">
<path d="M17.8229 0C19.5192 0 20.8958 1.37667 20.8958 3.07292V14.75H32.5729C33.3879 14.75 34.1695 15.0738 34.7458 15.65C35.3221 16.2263 35.6458 17.0079 35.6458 17.8229C35.6458 18.6379 35.3221 19.4195 34.7458 19.9958C34.1695 20.5721 33.3879 20.8958 32.5729 20.8958H20.8958V32.5729C20.8958 33.3879 20.5721 34.1695 19.9958 34.7458C19.4195 35.3221 18.6379 35.6458 17.8229 35.6458C17.0079 35.6458 16.2263 35.3221 15.65 34.7458C15.0738 34.1695 14.75 33.3879 14.75 32.5729V20.8958H3.07292C2.25793 20.8958 1.47632 20.5721 0.900036 19.9958C0.323753 19.4195 0 18.6379 0 17.8229C0 17.0079 0.323753 16.2263 0.900036 15.65C1.47632 15.0738 2.25793 14.75 3.07292 14.75H14.75V3.07292C14.75 1.37667 16.1267 0 17.8229 0Z" fill="#B22222"/>
</svg>
